<svg aria-hidden="true" style="width:0;height:0;position:absolute;overflow:hidden" xmlns="http://www.w3.org/2000/svg"><defs><symbol id="icon-favorite" viewBox="0 0 34 32"><path fill="#ff6b08" style="fill:var(--color1,#ff6b08)" d="m17.231 31.705-2.412-2.412C5.859 21.367.001 16.025.001 9.478.001 4.136 4.136.001 9.478.001c2.929 0 5.858 1.378 7.754 3.618 1.895-2.24 4.825-3.618 7.754-3.618 5.342 0 9.477 4.135 9.477 9.477 0 6.548-5.858 11.889-14.818 19.815l-2.412 2.412z"/></symbol><symbol id="icon-search" viewBox="0 0 32 32"><path fill="none" stroke="#fff" style="stroke:var(--color3,#fff)" stroke-linejoin="round" stroke-linecap="round" stroke-width="2.667" d="M14.667 25.333c5.891 0 10.667-4.776 10.667-10.667S20.558 3.999 14.667 3.999 4 8.775 4 14.666s4.776 10.667 10.667 10.667zM28 28.001l-5.8-5.8"/></symbol><symbol id="close-icon" viewBox="0 0 30 30"><path d="m8 8 14 14M8 22 22 8" stroke-width="2"/></symbol><symbol id="google" viewBox="0 0 256 262"><path d="M255.88 133.45c0-10.73-.87-18.57-2.76-26.69H130.55v48.45h71.95c-1.45 12.04-9.29 30.17-26.7 42.35l-.24 1.63 38.76 30.02 2.68.27c24.66-22.78 38.88-56.28 38.88-96.03" fill="#4285F4"/><path d="M130.55 261.1c35.25 0 64.84-11.6 86.45-31.62l-41.2-31.91c-11.02 7.68-25.81 13.05-45.25 13.05-34.52 0-63.82-22.77-74.27-54.25l-1.53.13-40.3 31.19-.52 1.46c21.46 42.65 65.56 71.95 116.62 71.95" fill="#34A853"/><path d="M56.28 156.37a80.37 80.37 0 0 1-4.35-25.82c0-9 1.6-17.7 4.2-25.82l-.07-1.73-40.8-31.69-1.34.64C5.08 89.65 0 109.52 0 130.55s5.08 40.9 13.93 58.6l42.35-32.78" fill="#FBBC05"/><path d="M130.55 50.48c24.51 0 41.05 10.59 50.48 19.44l36.84-35.98C195.24 12.91 165.8 0 130.55 0 79.49 0 35.39 29.3 13.92 71.95l42.22 32.78c10.59-31.48 39.89-54.25 74.41-54.25" fill="#EB4335"/></symbol><symbol id="icon-eye" viewBox="0 0 32 32"><path d="M16 6A17.92 17.92 0 0 0 0 16c2.97 5.94 9.02 10 16 10s13.03-4.06 16-10A17.92 17.92 0 0 0 16 6zm7.89 5.3c1.88 1.2 3.47 2.8 4.67 4.7-1.2 1.9-2.8 3.5-4.67 4.7a14.64 14.64 0 0 1-15.78 0A15.21 15.21 0 0 1 3.44 16a15.22 15.22 0 0 1 5.04-4.92A7.98 7.98 0 0 0 16 21.8a8 8 0 0 0 7.52-10.73l.37.22zM16 13a3 3 0 1 1-6 0 3 3 0 0 1 6 0z"/></symbol><symbol id="close" viewBox="0 0 32 32"><path stroke-width="2.133" d="m8.533 8.533 14.933 14.933m-14.933.001L23.466 8.534"/></symbol><symbol id="icon-email" viewBox="0 0 32 32"><path d="M26.67 5.33H5.33A2.66 2.66 0 0 0 2.67 8v16c0 1.46 1.19 2.67 2.66 2.67h21.34c1.45 0 2.66-1.21 2.66-2.67V8c0-1.48-1.2-2.67-2.66-2.67zM26.13 11l-9.42 5.89a1.34 1.34 0 0 1-1.43 0l-9.41-5.87a1.14 1.14 0 1 1 1.2-1.92L16 14.66l8.94-5.58a1.14 1.14 0 1 1 1.2 1.92z"/></symbol><symbol id="icon-key" viewBox="0 0 32 32"><path d="M22 0a10 10 0 0 0-9.83 11.83L0 24v6c0 1.1.9 2 2 2h2v-2h4v-4h4v-4h4l2.6-2.6A10 10 0 1 0 22 0zm3 10a3 3 0 1 1 0-6 3 3 0 0 1 0 6z"/></symbol><symbol id="search" viewBox="0 0 32 32"><path fill="none" stroke="var(--color1, #fff)" stroke-linejoin="round" stroke-linecap="round" stroke-width="2.667" d="M14.667 25.333c5.891 0 10.667-4.776 10.667-10.667S20.558 3.999 14.667 3.999 4 8.775 4 14.666s4.776 10.667 10.667 10.667zM28 28.001l-5.8-5.8"/></symbol><symbol id="search1" viewBox="0 0 32 32"><path fill="var(--color4, #acacac)" d="m30.741 28.234-9.884-9.884c2.009-2.755 2.898-6.364 1.742-10.204C21.39 4.182 18.03 1.07 13.977.253A11.575 11.575 0 0 0 .252 13.978c.818 4.071 3.929 7.431 7.893 8.622 3.84 1.156 7.449.267 10.204-1.742l9.884 9.884a1.773 1.773 0 0 0 2.506-2.506zM3.558 11.558c0-4.427 3.573-8 8-8s8 3.573 8 8-3.573 8-8 8-8-3.573-8-8z"/></symbol><symbol id="wind-direction" viewBox="0 0 32 32"><path fill="var(--color5, #48484a)" d="M32 16c0 8.837-7.163 16-16 16S0 24.837 0 16 7.163 0 16 0s16 7.163 16 16z"/><path fill="var(--color7, #e6e6e6)" d="M15.322 26.108 8.494 9.177a.842.842 0 0 1 1.074-1.104l17.3 6.432c.69.257.744 1.219.098 1.572-4.911 2.687-7.463 5.28-10.083 10.105-.346.638-1.291.599-1.562-.074z"/></symbol></defs></svg>