<svg aria-hidden="true" style="position: absolute; width: 0; height: 0; overflow: hidden;" version="1.1" xmlns="http://www.w3.org/2000/svg" xmlns:xlink="http://www.w3.org/1999/xlink">
<defs>
<symbol id="icon-favorite" viewBox="0 0 34 32">
<path fill="#ff6b08" style="fill: var(--color1, #ff6b08)" d="M17.231 31.705l-2.412-2.412c-8.96-7.926-14.818-13.268-14.818-19.815 0-5.342 4.135-9.477 9.477-9.477 2.929 0 5.858 1.378 7.754 3.618 1.895-2.24 4.825-3.618 7.754-3.618 5.342 0 9.477 4.135 9.477 9.477 0 6.548-5.858 11.889-14.818 19.815l-2.412 2.412z"></path>
</symbol>
<symbol id="icon-film" viewBox="0 0 32 32">
<path fill="none" stroke="#818181" style="stroke: var(--color2, #818181)" stroke-linejoin="round" stroke-linecap="round" stroke-miterlimit="4" stroke-width="2.6667" d="M26.427 2.667h-20.853c-1.605 0-2.907 1.301-2.907 2.907v20.853c0 1.605 1.301 2.907 2.907 2.907h20.853c1.605 0 2.907-1.301 2.907-2.907v-20.853c0-1.605-1.301-2.907-2.907-2.907z"></path>
<path fill="none" stroke="#818181" style="stroke: var(--color2, #818181)" stroke-linejoin="round" stroke-linecap="round" stroke-miterlimit="4" stroke-width="2.6667" d="M9.333 2.667v26.667"></path>
<path fill="none" stroke="#818181" style="stroke: var(--color2, #818181)" stroke-linejoin="round" stroke-linecap="round" stroke-miterlimit="4" stroke-width="2.6667" d="M22.667 2.667v26.667"></path>
<path fill="none" stroke="#818181" style="stroke: var(--color2, #818181)" stroke-linejoin="round" stroke-linecap="round" stroke-miterlimit="4" stroke-width="2.6667" d="M2.667 16h26.667"></path>
<path fill="none" stroke="#818181" style="stroke: var(--color2, #818181)" stroke-linejoin="round" stroke-linecap="round" stroke-miterlimit="4" stroke-width="2.6667" d="M2.667 9.333h6.667"></path>
<path fill="none" stroke="#818181" style="stroke: var(--color2, #818181)" stroke-linejoin="round" stroke-linecap="round" stroke-miterlimit="4" stroke-width="2.6667" d="M2.667 22.667h6.667"></path>
<path fill="none" stroke="#818181" style="stroke: var(--color2, #818181)" stroke-linejoin="round" stroke-linecap="round" stroke-miterlimit="4" stroke-width="2.6667" d="M22.667 22.667h6.667"></path>
<path fill="none" stroke="#818181" style="stroke: var(--color2, #818181)" stroke-linejoin="round" stroke-linecap="round" stroke-miterlimit="4" stroke-width="2.6667" d="M22.667 9.333h6.667"></path>
</symbol>
<symbol id="icon-search" viewBox="0 0 32 32">
<path fill="none" stroke="#fff" style="stroke: var(--color3, #fff)" stroke-linejoin="round" stroke-linecap="round" stroke-miterlimit="4" stroke-width="2.6667" d="M14.667 25.333c5.891 0 10.667-4.776 10.667-10.667s-4.776-10.667-10.667-10.667c-5.891 0-10.667 4.776-10.667 10.667s4.776 10.667 10.667 10.667z"></path>
<path fill="none" stroke="#fff" style="stroke: var(--color3, #fff)" stroke-linejoin="round" stroke-linecap="round" stroke-miterlimit="4" stroke-width="2.6667" d="M28 28.001l-5.8-5.8"></path>
</symbol>
<symbol id="heart-icon" viewBox="0 0 14 13">
<path d="M7 12.88L6.02 11.9C2.38 8.68 0 6.51 0 3.85C0 1.68 1.68 0 3.85 0C5.04 0 6.23 0.56 7 1.47C7.77 0.56 8.96 0 10.15 0C12.32 0 14 1.68 14 3.85C14 6.51 11.62 8.68 7.98 11.9L7 12.88Z"/>
</symbol>
<symbol id="github-icon" viewBox="0 0 438.549 438.549">
<path d="M409.132,114.573c-19.608-33.596-46.205-60.194-79.798-79.8C295.736,15.166,259.057,5.365,219.271,5.365
		c-39.781,0-76.472,9.804-110.063,29.408c-33.596,19.605-60.192,46.204-79.8,79.8C9.803,148.168,0,184.854,0,224.63
		c0,47.78,13.94,90.745,41.827,128.906c27.884,38.164,63.906,64.572,108.063,79.227c5.14,0.954,8.945,0.283,11.419-1.996
		c2.475-2.282,3.711-5.14,3.711-8.562c0-0.571-0.049-5.708-0.144-15.417c-0.098-9.709-0.144-18.179-0.144-25.406l-6.567,1.136
		c-4.187,0.767-9.469,1.092-15.846,1c-6.374-0.089-12.991-0.757-19.842-1.999c-6.854-1.231-13.229-4.086-19.13-8.559
		c-5.898-4.473-10.085-10.328-12.56-17.556l-2.855-6.57c-1.903-4.374-4.899-9.233-8.992-14.559
		c-4.093-5.331-8.232-8.945-12.419-10.848l-1.999-1.431c-1.332-0.951-2.568-2.098-3.711-3.429c-1.142-1.331-1.997-2.663-2.568-3.997
		c-0.572-1.335-0.098-2.43,1.427-3.289c1.525-0.859,4.281-1.276,8.28-1.276l5.708,0.853c3.807,0.763,8.516,3.042,14.133,6.851
		c5.614,3.806,10.229,8.754,13.846,14.842c4.38,7.806,9.657,13.754,15.846,17.847c6.184,4.093,12.419,6.136,18.699,6.136
		c6.28,0,11.704-0.476,16.274-1.423c4.565-0.952,8.848-2.383,12.847-4.285c1.713-12.758,6.377-22.559,13.988-29.41
		c-10.848-1.14-20.601-2.857-29.264-5.14c-8.658-2.286-17.605-5.996-26.835-11.14c-9.235-5.137-16.896-11.516-22.985-19.126
		c-6.09-7.614-11.088-17.61-14.987-29.979c-3.901-12.374-5.852-26.648-5.852-42.826c0-23.035,7.52-42.637,22.557-58.817
		c-7.044-17.318-6.379-36.732,1.997-58.24c5.52-1.715,13.706-0.428,24.554,3.853c10.85,4.283,18.794,7.952,23.84,10.994
		c5.046,3.041,9.089,5.618,12.135,7.708c17.705-4.947,35.976-7.421,54.818-7.421s37.117,2.474,54.823,7.421l10.849-6.849
		c7.419-4.57,16.18-8.758,26.262-12.565c10.088-3.805,17.802-4.853,23.134-3.138c8.562,21.509,9.325,40.922,2.279,58.24
		c15.036,16.18,22.559,35.787,22.559,58.817c0,16.178-1.958,30.497-5.853,42.966c-3.9,12.471-8.941,22.457-15.125,29.979
		c-6.191,7.521-13.901,13.85-23.131,18.986c-9.232,5.14-18.182,8.85-26.84,11.136c-8.662,2.286-18.415,4.004-29.263,5.146
		c9.894,8.562,14.842,22.077,14.842,40.539v60.237c0,3.422,1.19,6.279,3.572,8.562c2.379,2.279,6.136,2.95,11.276,1.995
		c44.163-14.653,80.185-41.062,108.068-79.226c27.88-38.161,41.825-81.126,41.825-128.906
		C438.536,184.851,428.728,148.168,409.132,114.573z"/>
</symbol>
<symbol id="close-icon" viewBox="0 0 30 30">
<path d="M8 8L22 22" stroke-width="2"/>
<path d="M8 22L22 8" stroke-width="2"/>
</symbol>

<symbol id="arrowUp-icon" viewBox="0 0 32 32">
<path d="M16 30c0.552 0 1-0.448 1-1v0-23.586l6.292 6.294c0.181 0.181 0.431 0.293 0.708 0.293 0.553 0 1.001-0.448 1.001-1.001 0-0.277-0.112-0.527-0.293-0.708v0l-8-8c-0.181-0.181-0.431-0.294-0.708-0.294s-0.527 0.112-0.708 0.294l-8 8c-0.181 0.181-0.293 0.431-0.293 0.708 0 0.553 0.448 1.001 1.001 1.001 0.276 0 0.527-0.112 0.708-0.293v0l6.292-6.294v23.586c0 0.552 0.448 1 1 1v0z"></path>
</symbol>

<symbol id="google" viewBox="0 0 256 262">
<path d="M255.88 133.45c0-10.73-.87-18.57-2.76-26.69H130.55v48.45h71.95c-1.45 12.04-9.29 30.17-26.7 42.35l-.24 1.63 38.76 30.02 2.68.27c24.66-22.78 38.88-56.28 38.88-96.03" fill="#4285F4"/>
<path d="M130.55 261.1c35.25 0 64.84-11.6 86.45-31.62l-41.2-31.91c-11.02 7.68-25.81 13.05-45.25 13.05-34.52 0-63.82-22.77-74.27-54.25l-1.53.13-40.3 31.19-.52 1.46c21.46 42.65 65.56 71.95 116.62 71.95" fill="#34A853"/>
<path d="M56.28 156.37a80.37 80.37 0 01-4.35-25.82c0-9 1.6-17.7 4.2-25.82l-.07-1.73-40.8-31.69-1.34.64C5.08 89.65 0 109.52 0 130.55s5.08 40.9 13.93 58.6l42.35-32.78" fill="#FBBC05"/>
<path d="M130.55 50.48c24.51 0 41.05 10.59 50.48 19.44l36.84-35.98C195.24 12.91 165.8 0 130.55 0 79.49 0 35.39 29.3 13.92 71.95l42.22 32.78c10.59-31.48 39.89-54.25 74.41-54.25" fill="#EB4335"/>
</symbol>

<symbol id="moon" viewBox="0 0 32 32">
<path fill="currentColor" d="M17.701 32a15.97 15.97 0 0012.429-5.925c.442-.544-.04-1.339-.723-1.209-7.763 1.478-14.891-4.474-14.891-12.31 0-4.514 2.416-8.665 6.344-10.9.605-.345.453-1.262-.235-1.389-.879-.17-1.89-.267-2.923-.268-8.832 0-16 7.157-16 16 0 8.832 7.157 16 16 16z"/>
</symbol>
<symbol id="sun" viewBox="0 0 32 32">
<path fill="currentColor" d="M16 10c-3.306 0-6 2.694-6 6s2.694 6 6 6 6-2.694 6-6-2.694-6-6-6zm15.4 5.031l-5.919-2.956L27.575 5.8c.281-.85-.525-1.656-1.369-1.369l-6.275 2.094L16.969.6c-.4-.8-1.537-.8-1.938 0l-2.956 5.919-6.281-2.094c-.85-.281-1.656.525-1.369 1.369l2.094 6.275L.6 15.032c-.8.4-.8 1.538 0 1.938l5.919 2.956-2.094 6.281c-.281.85.525 1.656 1.369 1.369l6.275-2.094 2.956 5.919c.4.8 1.538.8 1.938 0l2.956-5.919 6.275 2.094c.85.281 1.656-.525 1.369-1.369l-2.094-6.275 5.919-2.956c.813-.406.813-1.544.012-1.944zm-9.744 6.625c-3.119 3.119-8.194 3.119-11.313 0s-3.119-8.194 0-11.313c3.119-3.119 8.194-3.119 11.313 0s3.119 8.194 0 11.313z"/></symbol><symbol id="moon" viewBox="0 0 32 32"><path fill="currentColor" d="M17.701 32a15.97 15.97 0 0012.429-5.925c.442-.544-.04-1.339-.723-1.209-7.763 1.478-14.891-4.474-14.891-12.31 0-4.514 2.416-8.665 6.344-10.9.605-.345.453-1.262-.235-1.389-.879-.17-1.89-.267-2.923-.268-8.832 0-16 7.157-16 16 0 8.832 7.157 16 16 16z"/></symbol><symbol id="sun" viewBox="0 0 32 32"><path fill="currentColor" d="M16 10c-3.306 0-6 2.694-6 6s2.694 6 6 6 6-2.694 6-6-2.694-6-6-6zm15.4 5.031l-5.919-2.956L27.575 5.8c.281-.85-.525-1.656-1.369-1.369l-6.275 2.094L16.969.6c-.4-.8-1.537-.8-1.938 0l-2.956 5.919-6.281-2.094c-.85-.281-1.656.525-1.369 1.369l2.094 6.275L.6 15.032c-.8.4-.8 1.538 0 1.938l5.919 2.956-2.094 6.281c-.281.85.525 1.656 1.369 1.369l6.275-2.094 2.956 5.919c.4.8 1.538.8 1.938 0l2.956-5.919 6.275 2.094c.85.281 1.656-.525 1.369-1.369l-2.094-6.275 5.919-2.956c.813-.406.813-1.544.012-1.944zm-9.744 6.625c-3.119 3.119-8.194 3.119-11.313 0s-3.119-8.194 0-11.313c3.119-3.119 8.194-3.119 11.313 0s3.119 8.194 0 11.313z"/>
</symbol>
<symbol id="film" viewBox="0 0 32 32">
<path d="M19.82 2H4.18C2.97602 2 2 2.97602 2 4.18V19.82C2 21.024 2.97602 22 4.18 22H19.82C21.024 22 22 21.024 22 19.82V4.18C22 2.97602 21.024 2 19.82 2Z" stroke="#818181" stroke-width="2" stroke-linecap="round" stroke-linejoin="round"/>
<path d="M7 2V22" stroke="#818181" stroke-width="2" stroke-linecap="round" stroke-linejoin="round"/>
<path d="M17 2V22" stroke="#818181" stroke-width="2" stroke-linecap="round" stroke-linejoin="round"/>
<path d="M2 12H22" stroke="#818181" stroke-width="2" stroke-linecap="round" stroke-linejoin="round"/>
<path d="M2 7H7" stroke="#818181" stroke-width="2" stroke-linecap="round" stroke-linejoin="round"/>
<path d="M2 17H7" stroke="#818181" stroke-width="2" stroke-linecap="round" stroke-linejoin="round"/>
<path d="M17 17H22" stroke="#818181" stroke-width="2" stroke-linecap="round" stroke-linejoin="round"/>
<path d="M17 7H22" stroke="#818181" stroke-width="2" stroke-linecap="round" stroke-linejoin="round"/>
</symbol>
<symbol id="right-arrow" viewBox="0 0 96 96">
<path d="M12,52h62.344L53.172,73.172c-1.562,1.562-1.562,4.094,0,5.656c1.562,1.562,4.095,1.562,5.657,0l28-28c1.562-1.562,1.562-4.095,0-5.656l-28-28C58.048,16.391,57.024,16,56,16c-1.023,0-2.047,0.391-2.828,1.172c-1.562,1.562-1.562,4.095,0,5.656L74.344,44H12c-2.209,0-4,1.791-4,4S9.791,52,12,52z"/>
</symbol>
<symbol id="left-arrow" viewBox="0 0 96 96">
<path d="M83.999,43.999H21.656l21.172-21.172c1.562-1.562,1.561-4.094,0-5.657c-1.562-1.562-4.094-1.562-5.657,0l-28,28c-1.562,1.562-1.562,4.095-0.001,5.656l28,28c0.781,0.781,1.805,1.172,2.829,1.172c1.023,0,2.047-0.391,2.829-1.173c1.562-1.561,1.561-4.094,0-5.655L21.655,51.999h62.344c2.209,0,4.001-1.792,4-4C87.999,45.79,86.208,43.999,83.999,43.999z"/>
</symbol>

<symbol id="icon-eye" viewBox="0 0 32 32">
<path d="M16 6A17.92 17.92 0 000 16c2.97 5.94 9.02 10 16 10s13.03-4.06 16-10A17.92 17.92 0 0016 6zm7.89 5.3c1.88 1.2 3.47 2.8 4.67 4.7-1.2 1.9-2.8 3.5-4.67 4.7a14.64 14.64 0 01-15.78 0A15.21 15.21 0 013.44 16a15.22 15.22 0 015.04-4.92A7.98 7.98 0 0016 21.8a8 8 0 007.52-10.73l.37.22zM16 13a3 3 0 11-6 0 3 3 0 016 0z"/>
</symbol>
<symbol id="close" viewBox="0 0 32 32">
<path stroke-width="2.133" d="M8.533 8.533l14.933 14.933m-14.933.001L23.466 8.534"/>
</symbol>
<symbol id="icon-email" viewBox="0 0 32 32">
<path d="M26.67 5.33H5.33A2.66 2.66 0 002.67 8v16c0 1.46 1.19 2.67 2.66 2.67h21.34c1.45 0 2.66-1.21 2.66-2.67V8c0-1.48-1.2-2.67-2.66-2.67zM26.13 11l-9.42 5.89a1.34 1.34 0 01-1.43 0l-9.41-5.87a1.14 1.14 0 111.2-1.92L16 14.66l8.94-5.58a1.14 1.14 0 111.2 1.92z"/>
</symbol>
<symbol id="icon-key" viewBox="0 0 32 32">
<path d="M22 0a10 10 0 00-9.83 11.83L0 24v6c0 1.1.9 2 2 2h2v-2h4v-4h4v-4h4l2.6-2.6A10 10 0 1022 0zm3 10a3 3 0 110-6 3 3 0 010 6z"/>
</symbol>
<symbol id="search" viewBox="0 0 32 32">
<path fill="none" stroke="var(--color1, #fff)" stroke-linejoin="round" stroke-linecap="round" stroke-width="2.667" d="M14.667 25.333c5.891 0 10.667-4.776 10.667-10.667S20.558 3.999 14.667 3.999 4 8.775 4 14.666s4.776 10.667 10.667 10.667zM28 28.001l-5.8-5.8"/>
</symbol>
<symbol id="arrow-left" viewBox="0 0 32 32">
<path stroke-linejoin="round" stroke-linecap="round" stroke-width="2.667" d="M25.333 16H6.666M16 25.333L6.667 16 16 6.667"/>
</symbol>
<symbol id="arrow-right" viewBox="0 0 32 32">
<path stroke-linejoin="round" stroke-linecap="round" stroke-width="2.667" d="M6.667 16h18.667M16 25.333L25.333 16 16 6.667"/>
</symbol>
<symbol id="heart" viewBox="0 0 32 32">
<path fill="var(--color2, #ff6b08)" d="M16 30.583l-2.24-2.24C5.44 20.983 0 16.023 0 9.943c0-4.96 3.84-8.8 8.8-8.8 2.72 0 5.44 1.28 7.2 3.36 1.76-2.08 4.48-3.36 7.2-3.36 4.96 0 8.8 3.84 8.8 8.8 0 6.08-5.44 11.04-13.76 18.4L16 30.583z"/>
</symbol>
<symbol id="film" viewBox="0 0 32 32">
<path fill="none" stroke="var(--color3, #818181)" stroke-linejoin="round" stroke-linecap="round" stroke-width="2.667" d="M26.427 2.667H5.574a2.907 2.907 0 00-2.907 2.907v20.853a2.907 2.907 0 002.907 2.907h20.853a2.907 2.907 0 002.907-2.907V5.574a2.907 2.907 0 00-2.907-2.907zm-17.094 0v26.667M22.667 2.667v26.667M2.667 16h26.667M2.667 9.333h6.667M2.667 22.667h6.667m13.333 0h6.667M22.667 9.333h6.667"/>
</symbol>
<symbol id="btn-left" viewBox="0 0 32 32">
<path fill="var(--color1, #fff)" opacity=".3" d="M0 16C0 7.163 7.163 0 16 0s16 7.163 16 16-7.163 16-16 16S0 24.837 0 16z"/>
<path fill="none" opacity=".3" stroke="var(--color4, #acacac)" stroke-width="2.526" d="M19.368 20.632l-7.685-4.758a.842.842 0 010-1.432l7.685-4.758"/>
</symbol>
<symbol id="btn-right" viewBox="0 0 32 32">
<path fill="var(--color1, #fff)" d="M32 16c0 8.837-7.163 16-16 16S0 24.837 0 16 7.163 0 16 0s16 7.163 16 16z"/>
<path fill="none" stroke="var(--color4, #acacac)" stroke-width="2.526" d="M12.632 11.368l7.685 4.758a.842.842 0 010 1.432l-7.685 4.758"/>
</symbol>
<symbol id="close1" viewBox="0 0 32 32">
<path fill="var(--color5, #48484a)" d="M32 3.223L28.777 0 16 12.777 3.223 0 0 3.223 12.777 16 0 28.777 3.223 32 16 19.223 28.777 32 32 28.777 19.223 16 32 3.223z"/>
</symbol>
<symbol id="location" viewBox="0 0 32 32">
<path fill="var(--color6, #ec6e4d)" d="M16 .314c-6.071 0-10.98 4.91-10.98 10.98C5.02 19.529 16 31.686 16 31.686s10.98-12.157 10.98-20.392C26.98 5.223 22.07.314 16 .314zm0 14.902a3.92 3.92 0 110-7.842 3.92 3.92 0 010 7.842z"/>
</symbol>
<symbol id="search1" viewBox="0 0 32 32">
<path fill="var(--color4, #acacac)" d="M30.741 28.234l-9.884-9.884c2.009-2.755 2.898-6.364 1.742-10.204C21.39 4.182 18.03 1.07 13.977.253A11.575 11.575 0 00.252 13.978c.818 4.071 3.929 7.431 7.893 8.622 3.84 1.156 7.449.267 10.204-1.742l9.884 9.884a1.773 1.773 0 002.506-2.506zM3.558 11.558c0-4.427 3.573-8 8-8s8 3.573 8 8-3.573 8-8 8-8-3.573-8-8z"/
></symbol>
<symbol id="wind-direction" viewBox="0 0 32 32">
<path fill="var(--color5, #48484a)" d="M32 16c0 8.837-7.163 16-16 16S0 24.837 0 16 7.163 0 16 0s16 7.163 16 16z"/>
<path fill="var(--color7, #e6e6e6)" d="M15.322 26.108L8.494 9.177a.842.842 0 011.074-1.104l17.3 6.432c.69.257.744 1.219.098 1.572-4.911 2.687-7.463 5.28-10.083 10.105-.346.638-1.291.599-1.562-.074z"/>
</symbol>



<symbol id="microphone" viewBox="0 0 32 32">
<path d="M16.4 25.936v2.993c2.992.161 5.305 1.151 5.305 2.075 0 .023-12.268.023-12.268 0 0-.889 2.142-1.849 4.973-2.062v-3.018c-3.614-.518-6.402-3.597-6.402-7.354v-1.555h.995v1.555a6.466 6.466 0 006.464 6.466h.004a6.466 6.466 0 006.464-6.466v-1.555h1.058v1.555c-.001 3.801-2.917 6.903-6.593 7.366zm-.9-1.981a5.493 5.493 0 01-5.494-5.494v-2.477h4.495v-.999h-4.495v-.999h4.495v-.998h-4.495v-.999h4.495v-.999h-4.495v-.999h4.495v-.999h-4.495V7.41c0-3.034 2.459-5.432 5.494-5.432 3.034 0 5.494 2.397 5.494 5.432v1.582h-4.496v.999h4.496v.999h-4.496v.999h4.496v.999h-4.496v.998h4.496v.999h-4.496v.999h4.496v2.477a5.494 5.494 0 01-5.494 5.494z"/>
</symbol>

</defs>

</svg>

